HIERARCHY
ROOT root     
{
	OFFSET 0.0000 0.0000 0.0000
	CHANNELS 6 Xposition Yposition Zposition Zrotation Yrotation Xrotation
	JOINT pelvis   
	{
		OFFSET 0.0000 0.0000 0.0000
		CHANNELS 3 Zrotation Yrotation Xrotation
		JOINT thorax   
		{
			OFFSET 0.0000 23.0750 -5.0000
			CHANNELS 3 Zrotation Yrotation Xrotation
			JOINT rclavicle
			{
				OFFSET 0.0000 28.0009 0.0000
				CHANNELS 3 Zrotation Yrotation Xrotation
				JOINT rhumerus 
				{
					OFFSET -18.5725 5.5939 0.0000
					CHANNELS 3 Zrotation Yrotation Xrotation
					JOINT rradius  
					{
						OFFSET -24.8459 0.0000 0.0000
						CHANNELS 3 Zrotation Yrotation Xrotation
						JOINT rhand    
						{
							OFFSET -24.5477 0.0000 0.0000
							CHANNELS 3 Zrotation Yrotation Xrotation
							End Site
							{
								OFFSET -8.1826 0.0000 0.0000
							}
						}
					}
				}
			}
			JOINT lclavicle
			{
				OFFSET 0.0000 28.0009 0.0000
				CHANNELS 3 Zrotation Yrotation Xrotation
				JOINT lhumerus 
				{
					OFFSET 18.5725 5.5939 0.0000
					CHANNELS 3 Zrotation Yrotation Xrotation
					JOINT lradius  
					{
						OFFSET 24.8459 0.0000 0.0000
						CHANNELS 3 Zrotation Yrotation Xrotation
						JOINT lhand    
						{
							OFFSET 24.5477 0.0000 0.0000
							CHANNELS 3 Zrotation Yrotation Xrotation
							End Site
							{
								OFFSET 8.1826 0.0000 0.0000
							}
						}
					}
				}
			}
			JOINT head     
			{
				OFFSET 0.0000 35.2030 0.0000
				CHANNELS 3 Zrotation Yrotation Xrotation
				End Site
				{
					OFFSET 0.0000 11.7343 0.0000
				}
			}
		}
		JOINT rfemur   
		{
			OFFSET -8.2817 0.0000 0.0000
			CHANNELS 3 Zrotation Yrotation Xrotation
			JOINT rtibia   
			{
				OFFSET 0.0000 -43.3627 0.0000
				CHANNELS 3 Zrotation Yrotation Xrotation
				JOINT rfoot    
				{
					OFFSET 0.0000 -38.2947 0.0000
					CHANNELS 3 Zrotation Yrotation Xrotation
					JOINT rtoes    
					{
						OFFSET 0.0000 0.0000 16.6054
						CHANNELS 3 Zrotation Yrotation Xrotation
						End Site
						{
							OFFSET 0.0000 0.0000 5.5351
						}
					}
				}
			}
		}
		JOINT lfemur   
		{
			OFFSET 8.2817 0.0000 0.0000
			CHANNELS 3 Zrotation Yrotation Xrotation
			JOINT ltibia   
			{
				OFFSET 0.0000 -43.3627 0.0000
				CHANNELS 3 Zrotation Yrotation Xrotation
				JOINT lfoot    
				{
					OFFSET 0.0000 -38.2947 0.0000
					CHANNELS 3 Zrotation Yrotation Xrotation
					JOINT ltoes    
					{
						OFFSET 0.0000 0.0000 16.6054
						CHANNELS 3 Zrotation Yrotation Xrotation
						End Site
						{
							OFFSET 0.0000 0.0000 5.5351
						}
					}
				}
			}
		}
	}
}
MOTION
Frames: 15
Frame Time: .0333333
-63.622 81.264 5.8277 36.3914 87.8703 55.4485 0 -0 0 5.0737 -1.83929 19.4592 20.6903 -5.22745 -1.38901e-05 50.2201 6.56591 0.759832 -6.75855e-07 69.0272 -9.82847e-07 -4.96697 2.51931 -0.1093 -20.1291 12.4857 -7.44223e-05 -57.9007 21.7377 13.9484 7.89148e-07 -62.4464 -4.78355e-07 -0.880887 3.85377 -0.0295991 -1.79237 -0.101096 -9.75921 6.34938 -11.0406 -34.7517 -0 -0 45.886 1.27052e-05 -3.52859 -15.3788 0.936892 4.29925e-06 -19.4366 -5.94417 9.12638 -49.4433 -0 -0 62.046 -8.42455e-05 21.3537 -10.3051 -4.00055 -8.5907e-06 -11.8898 
-63.082 81.301 5.8593 38.741 87.9805 57.8051 0 -0 0 4.93584 -1.5637 19.456 20.5742 -5.19026 8.37969e-06 50.1114 6.77098 0.861227 -0 69.7677 -0 -5.01657 2.53507 -0.111098 -20.1574 12.5601 -0.000106281 -57.9368 21.9613 14.0374 7.80842e-07 -62.0656 -4.69788e-07 -0.90021 3.84949 -0.0303005 -1.85382 -0.1252 -9.77111 6.33404 -11.2267 -34.2257 -0 -0 45.6087 6.27797e-06 -3.51268 -15.4808 0.938701 2.08121e-06 -19.9112 -6.3344 9.07837 -50.2879 -0 -0 60.9432 2.43668e-05 21.126 -10.205 -3.91631 -1.03866e-05 -12.308 
-62.53 81.33 5.8885 41.188 88.0775 60.2535 0 -0 0 4.79643 -1.28997 19.4508 20.4544 -5.16067 2.41909e-05 50.018 6.94921 0.961124 -1.04509e-06 70.516 -7.38817e-07 -5.06777 2.54968 -0.112895 -20.187 12.6403 -8.43813e-05 -57.9782 22.1772 14.0948 -4.61464e-07 -61.688 7.7277e-07 -0.909992 3.84425 -0.0304999 -1.91757 -0.140797 -9.79301 6.31695 -11.4047 -33.6867 -0 -0 45.3425 1.67716e-05 -3.50139 -15.5756 0.941201 -3.10085e-06 -20.4072 -6.73917 9.04334 -51.0749 -0 -0 59.7603 2.25179e-05 20.9123 -10.0929 -3.83106 -2.37439e-05 -12.7612 
-61.967 81.352 5.9149 43.7214 88.1967 62.7777 0 -0 0 4.65488 -1.01953 19.4429 20.329 -5.13767 -9.34911e-06 49.9413 7.10125 1.06237 -0 71.272 -0 -5.12072 2.56152 -0.114602 -20.2169 12.7287 -6.80613e-05 -58.021 22.3868 14.1241 -6.41274e-07 -61.3131 1.0819e-06 -0.90989 3.83931 -0.0304995 -1.98459 -0.145796 -9.82498 6.29778 -11.5725 -33.1364 -0 -0 45.0865 -1.35013e-05 -3.49659 -15.6705 0.945594 6.24031e-06 -20.8881 -7.16176 9.02536 -51.8067 -0 -0 58.5057 6.52829e-05 20.723 -9.95763 -3.74313 1.22777e-05 -13.2524 
-61.393 81.366 5.9383 46.3402 88.311 65.3816 0 -0 0 4.51051 -0.753498 19.4303 20.1988 -5.12191 -3.325e-05 49.8823 7.22985 1.16985 -8.13736e-07 72.034 -1.11933e-06 -5.1742 2.56823 -0.116101 -20.2481 12.8254 -7.86657e-05 -58.0655 22.5918 14.1253 -4.45828e-07 -60.9486 7.57647e-07 -0.900894 3.83644 -0.0302 -2.0558 -0.138999 -9.86726 6.2757 -11.7278 -32.5757 -0 -0 44.8443 2.47523e-06 -3.50025 -15.7711 0.952508 -1.41395e-06 -21.385 -7.60723 9.03156 -52.4889 -0 -0 57.1915 8.65439e-05 20.5686 -9.80031 -3.65484 1.15187e-06 -13.6748 
-60.807 81.373 5.9583 49.0511 88.3944 68.0771 0 -0 0 4.36132 -0.493072 19.4133 20.0635 -5.11234 1.86416e-05 49.8385 7.33661 1.28602 -0 72.7978 -0 -5.22676 2.56829 -0.117199 -20.2795 12.9303 0.000118712 -58.1082 22.7931 14.101 0 -60.5953 0 -0.8854 3.83839 -0.0296999 -2.13075 -0.119905 -9.92007 6.24994 -11.872 -32.0054 -0 -0 44.6152 5.2472e-06 -3.51347 -15.8809 0.962493 -3.53263e-06 -21.8876 -8.08343 9.07048 -53.1277 -0 -0 55.836 -1.77337e-07 20.4536 -9.6171 -3.56536 1.48876e-05 -13.9976 
-60.209 81.371 5.9745 51.848 88.4924 70.8526 0 -0 0 4.20489 -0.239383 19.3905 19.9292 -5.11003 -1.30978e-05 49.8099 7.42431 1.41417 -0 73.5667 -0 -5.27591 2.55999 -0.118 -20.3113 13.0434 5.65696e-05 -58.1518 22.9901 14.0532 7.44186e-07 -60.2537 -4.31862e-07 -0.867196 3.84666 -0.0291002 -2.20859 -0.0892 -9.98396 6.21988 -12.0052 -31.431 -0 -0 44.4027 6.37191e-08 -3.53578 -16.0072 0.976207 -4.17572e-07 -22.3758 -8.59985 9.15003 -53.7349 -0 -0 54.46 3.34027e-05 20.3781 -9.41306 -3.47653 -3.90849e-06 -14.1509 
-59.601 81.362 5.9869 54.8625 88.5967 73.8398 0 -0 0 4.0393 0.00609131 19.365 19.7932 -5.11046 -1.33892e-05 49.7986 7.48967 1.55311 -1.25962e-06 74.3336 -9.54931e-07 -5.32078 2.54736 -0.118397 -20.3454 13.1624 -1.05116e-05 -58.1904 23.1822 13.9847 0 -59.9362 0 -0.851305 3.87015 -0.0288007 -2.28796 -0.0482951 -10.0598 6.18425 -12.1276 -30.8514 -0 -0 44.203 -2.96569e-06 -3.56784 -16.1431 0.993213 -9.21775e-07 -22.9277 -9.16567 9.2778 -54.3163 -0 -0 53.0828 1.62806e-05 20.3361 -9.17648 -3.38272 -6.82129e-06 -14.2627 
-58.983 81.346 5.9951 58.1161 88.6968 77.0653 0 -0 0 3.86131 0.243216 19.3313 19.663 -5.11771 1.46255e-05 49.7951 7.53939 1.70595 -1.01182e-06 75.0983 -1.31626e-06 -5.35675 2.52684 -0.118199 -20.3756 13.2851 0.000115495 -58.2266 23.3702 13.8959 0 -59.6311 0 -0.841505 3.90397 -0.0287001 -2.36647 7.6742e-06 -10.1475 6.14227 -12.2443 -30.2714 -0 -0 44.0226 1.26567e-05 -3.6064 -16.2973 1.0132 -1.50642e-06 -23.4422 -9.79139 9.45732 -54.8842 -0 -0 51.7214 2.61705e-05 20.3199 -8.9354 -3.29186 -8.53157e-06 -14.1805 
-58.355 81.321 5.9992 61.7699 88.7802 80.6903 0 -0 0 3.6692 0.470411 19.2938 19.5396 -5.12781 -1.94603e-05 49.8055 7.56988 1.87047 -1.07466e-06 75.8624 -1.37884e-06 -5.38371 2.50493 -0.117801 -20.4063 13.4088 -5.7039e-05 -58.2579 23.5542 13.7868 -5.86206e-07 -59.3456 1.02885e-06 -0.842895 3.95674 -0.0290999 -2.44193 0.0527936 -10.2472 6.09271 -12.3553 -29.6916 -0 -0 43.8606 -2.26207e-07 -3.65045 -16.4573 1.03549 -2.00283e-06 -24.017 -10.4824 9.69097 -55.4373 -0 -0 50.3886 -2.69534e-05 20.3129 -8.68383 -3.19881 -1.679e-05 -14.1004 
-57.716 81.289 5.9989 65.981 88.8424 84.8713 0 -0 0 3.46173 0.686812 19.2555 19.4232 -5.13962 -1.64107e-05 49.8255 7.58118 2.04568 -1.44801e-06 76.6246 -1.14408e-06 -5.40036 2.48511 -0.117199 -20.4362 13.5265 -0.000159808 -58.2831 23.7379 13.6549 -5.79333e-07 -59.0824 1.02225e-06 -0.859305 4.02974 -0.0302 -2.512 0.106802 -10.3584 6.03416 -12.4647 -29.1102 -0 -0 43.7215 -8.90587e-06 -3.69753 -16.615 1.05859 2.13576e-06 -24.6793 -11.2387 9.97115 -55.9742 -0 -0 49.0908 9.49327e-07 20.2978 -8.43125 -3.10417 -8.52492e-06 -14.0953 
-57.066 81.249 5.9945 70.7825 88.8949 89.6364 0 -0 0 3.24083 0.89267 19.2149 19.3184 -5.15489 7.41183e-07 49.8523 7.57575 2.23163 -0 77.3775 -0 -5.40515 2.46805 -0.1165 -20.4596 13.6397 -2.20434e-05 -58.3075 23.912 13.5052 0 -58.8282 0 -0.890517 4.11779 -0.0320008 -2.57546 0.158398 -10.4786 5.96805 -12.5742 -28.5299 -0 -0 43.6078 1.66756e-05 -3.7443 -16.7727 1.0819 2.94099e-06 -25.364 -12.0544 10.2911 -56.487 -0 -0 47.827 -1.64677e-05 20.2574 -8.19517 -3.01152 9.24525e-07 -14.1376 
-56.405 81.202 5.9863 76.1725 88.9812 94.9826 0 -0 0 3.01019 1.08806 19.1768 19.226 -5.1731 1.43011e-05 49.8819 7.55338 2.4273 -1.84847e-06 78.1255 -2.27765e-06 -5.39888 2.45693 -0.115901 -20.4774 13.7467 -1.50887e-05 -58.3341 24.0735 13.3401 -5.66485e-07 -58.5778 1.00994e-06 -0.935592 4.21824 -0.0345 -2.63222 0.204794 -10.6053 5.89639 -12.6869 -27.9479 -0 -0 43.5214 -7.48419e-06 -3.78896 -16.9212 1.10431 7.83531e-06 -26.0672 -12.9128 10.6359 -56.962 -0 -0 46.5958 8.17446e-05 20.1718 -7.97917 -2.91949 7.17297e-06 -14.3074 
-55.729 81.145 5.9745 82.2865 88.9999 101.042 0 -0 0 2.77159 1.27179 19.1449 19.142 -5.18959 9.00079e-06 49.9187 7.50933 2.63137 -1.70563e-06 78.854 -1.40235e-06 -5.38435 2.45857 -0.115597 -20.4968 13.8363 8.81206e-05 -58.356 24.2383 13.1478 -5.60647e-07 -58.3406 1.00437e-06 -0.995788 4.33554 -0.0376997 -2.68188 0.245499 -10.7344 5.8175 -12.8032 -27.3574 -0 -0 43.465 -2.24991e-05 -3.82886 -17.0432 1.12381 3.76937e-06 -26.9419 -13.7921 10.9916 -57.3731 -0 -0 45.3825 -1.81985e-05 20.0269 -7.76216 -2.81842 -6.67003e-06 -14.8362 
-55.038 81.079 5.9597 88.9979 89.05 107.683 0 -0 0 2.53457 1.44636 19.1198 19.0688 -5.20788 -1.34162e-05 49.956 7.44789 2.84637 -3.12885e-06 79.5646 -3.28576e-06 -5.36211 2.4699 -0.115701 -20.5099 13.9188 -2.41093e-05 -58.3832 24.3875 12.9423 0 -58.0971 -0 -1.0634 4.45613 -0.0414004 -2.72728 0.279407 -10.8619 5.73719 -12.9242 -26.755 -0 -0 43.4411 1.86038e-05 -3.86299 -17.1479 1.14049 -1.04977e-06 -27.858 -14.6605 11.342 -57.705 -0 -0 44.1845 -2.69172e-05 19.8099 -7.55268 -2.71077 8.29414e-07 -15.59 
